<?xml version="1.0" encoding="UTF-8" standalone="no"?>
<!-- Created with Inkscape (http://www.inkscape.org/) -->

<svg
   xmlns:dc="http://purl.org/dc/elements/1.1/"
   xmlns:cc="http://creativecommons.org/ns#"
   xmlns:rdf="http://www.w3.org/1999/02/22-rdf-syntax-ns#"
   xmlns:svg="http://www.w3.org/2000/svg"
   xmlns="http://www.w3.org/2000/svg"
   xmlns:sodipodi="http://sodipodi.sourceforge.net/DTD/sodipodi-0.dtd"
   xmlns:inkscape="http://www.inkscape.org/namespaces/inkscape"
   id="svg2"
   version="1.1"
   inkscape:version="0.48.1 r9760"
   width="937"
   height="847"
   sodipodi:docname="JAviator-Ground-Top-View.svg">
  <metadata
     id="metadata8">
    <rdf:RDF>
      <cc:Work
         rdf:about="">
        <dc:format>image/svg+xml</dc:format>
        <dc:type
           rdf:resource="http://purl.org/dc/dcmitype/StillImage" />
        <dc:title />
      </cc:Work>
    </rdf:RDF>
  </metadata>
  <defs
     id="defs6" />
  <sodipodi:namedview
     pagecolor="#ffffff"
     bordercolor="#666666"
     borderopacity="1"
     objecttolerance="10"
     gridtolerance="10"
     guidetolerance="10"
     inkscape:pageopacity="0"
     inkscape:pageshadow="2"
     inkscape:window-width="1920"
     inkscape:window-height="1143"
     id="namedview4"
     showgrid="false"
     inkscape:zoom="1.1570248"
     inkscape:cx="303.42143"
     inkscape:cy="423.5"
     inkscape:window-x="-4"
     inkscape:window-y="-4"
     inkscape:window-maximized="1"
     inkscape:current-layer="svg2" />
  <path
     style="fill:#008000;fill-opacity:1;stroke:#008000;stroke-width:0;stroke-linecap:butt;stroke-miterlimit:0;stroke-opacity:1;stroke-dasharray:none"
     d="m 434.87929,827.50934 c -22.76127,-2.97315 -49.77837,-12.33087 -67.84628,-23.49942 -20.88593,-12.91049 -40.44512,-32.02046 -52.42102,-51.21706 -8.02809,-12.86852 -11.86217,-21.21529 -16.27735,-35.43572 -4.92463,-15.86126 -6.07208,-24.22952 -5.98477,-43.64643 0.0694,-15.42725 0.32957,-18.42984 2.4202,-27.92737 3.00532,-13.65282 6.38763,-23.30101 12.32777,-35.16548 9.13207,-18.23987 20.45825,-33.13587 34.98435,-46.01087 27.92339,-24.74949 59.64756,-38.48813 98.64032,-42.71772 9.21503,-0.99956 9.32012,-0.99027 11.45179,1.01233 l 2.15141,2.02114 0,76.33863 c 0,67.28037 0.15384,76.33863 1.29643,76.33863 1.1426,0 1.29643,-9.05826 1.29643,-76.33863 l 0,-76.33863 2.169,-2.03766 c 2.16467,-2.0336 2.18886,-2.03559 12.14509,-0.99777 36.43802,3.79822 68.56451,17.04617 95.01805,39.18244 26.87613,22.48987 46.09873,54.77105 51.89232,87.14454 1.95458,10.92179 2.61855,34.05505 1.28476,44.76172 -6.87204,55.16332 -45.79222,102.87497 -101.45476,124.37187 -10.35454,3.99893 -28.57117,8.56174 -38.58303,9.6641 -14.70602,1.61921 -34.25036,1.8376 -44.51071,0.49736 l 0,0 z"
     id="path3868"
     inkscape:connector-curvature="0" />
  <path
     style="fill:#008000;fill-opacity:1;stroke:#008000;stroke-width:0;stroke-linecap:butt;stroke-miterlimit:0;stroke-opacity:1;stroke-dasharray:none"
     d="m 175.59357,574.76551 c -23.67631,-4.30537 -47.55878,-14.4919 -68.95762,-29.4123 C 96.364599,538.19147 77.867266,519.68683 70.361355,509.06429 60.167226,494.6373 50.468878,472.97397 46.829965,456.50189 43.580348,441.79203 42.912497,423.0711 45.03483,406.18143 c 1.998279,-15.90241 6.522252,-29.75788 15.19474,-46.53657 23.693038,-45.83898 74.25716,-79.23682 127.03608,-83.90793 36.04463,-3.19007 66.17196,2.1737 95.19068,16.94745 44.51383,22.66249 75.21134,63.07254 83.69238,110.17226 2.34121,13.00199 2.32154,18.99212 -0.0695,21.15762 -1.70137,1.54089 -4.04263,1.68185 -36.51607,2.1985 -19.08398,0.30362 -54.63073,0.59532 -78.99278,0.64821 l -44.29466,0.0962 0,2.88374 0,2.88373 44.22072,0.57341 c 24.32139,0.31538 57.47755,0.60623 73.68035,0.64634 34.06725,0.0843 38.94757,0.47748 41.25182,3.32312 2.14849,2.65326 2.02457,6.17959 -0.63628,18.10702 -10.02339,44.93048 -40.63147,83.06909 -83.62835,104.2035 -26.70993,13.12883 -44.12554,16.90816 -77.48111,16.81402 -14.86252,-0.0419 -21.48373,-0.42535 -28.08929,-1.62651 z"
     id="path3872"
     inkscape:connector-curvature="0" />
  <path
     style="fill:#008000;fill-opacity:1;stroke:#008000;stroke-width:0;stroke-linecap:butt;stroke-miterlimit:0;stroke-opacity:1;stroke-dasharray:none"
     d="m 463.23024,327.39406 c -1.04447,-0.50463 -2.29359,-2.04932 -2.77582,-3.43264 -0.54443,-1.56178 -1.10608,-29.03792 -1.48174,-72.48826 L 458.36771,181.5 l -2.88529,0 -2.88528,0 -0.10692,40.40536 c -0.0588,22.22294 -0.35049,54.34453 -0.64821,71.3813 l -0.5413,30.97594 -2.16071,1.75994 c -1.9473,1.58609 -2.9516,1.70867 -10.16775,1.24103 -27.77638,-1.80003 -65.39163,-17.3305 -89.22511,-36.83898 -22.60233,-18.50076 -39.5661,-43.36693 -48.66026,-71.32816 -5.34055,-16.42024 -6.14259,-21.99097 -6.15955,-42.78214 -0.0131,-16.02611 0.24887,-19.78857 1.90426,-27.35271 4.6658,-21.31993 15.09406,-43.84104 27.75492,-59.940151 19.18085,-24.389704 47.60787,-44.695726 76.58563,-54.706732 19.21951,-6.639803 31.54781,-8.386126 59.20253,-8.386126 20.36875,0 30.4834,1.545975 48.15022,7.359527 37.74046,12.419103 69.6633,37.092525 89.12065,68.882062 25.04532,40.91922 27.80468,91.37432 7.36361,134.64413 -7.72071,16.34323 -15.40671,27.32841 -28.67518,40.98384 -26.05773,26.81767 -58.80903,43.16814 -98.02673,48.938 -12.98611,1.91057 -12.5259,1.89048 -15.077,0.65793 l 0,0 z"
     id="path3876"
     inkscape:connector-curvature="0" />
  <path
     style="fill:#008000;fill-opacity:1;stroke:#008000;stroke-width:0;stroke-linecap:butt;stroke-miterlimit:0;stroke-opacity:1;stroke-dasharray:none"
     d="m 680.33643,575.49036 c -13.8538,-1.7622 -33.63793,-7.63603 -48.29696,-14.33917 -41.52222,-18.98686 -73.45407,-55.29004 -85.60951,-97.32907 -4.99316,-17.26864 -5.71822,-24.59897 -2.72881,-27.58837 1.60194,-1.60195 36.05257,-2.35875 107.46564,-2.3608 l 52.9375,-0.002 0,-3.025 0,-3.025 -17.06965,-0.0626 c -9.3883,-0.0344 -43.90571,-0.38417 -76.70535,-0.7772 -64.00294,-0.76695 -65.61995,-0.88966 -68.84674,-5.22426 -1.55699,-2.09153 -1.55279,-2.42353 0.16327,-12.92372 5.46974,-33.46803 16.17542,-56.59469 37.12956,-80.20813 21.14834,-23.83229 50.03685,-41.24081 82.11462,-49.48313 12.23465,-3.14367 22.06114,-4.45996 36.76219,-4.9244 15.82666,-0.50001 27.22048,0.42764 41.02352,3.33998 55.35701,11.67994 101.03467,50.83161 118.77862,101.80868 5.85981,16.8348 6.87407,23.79963 6.86746,47.15833 l -0.006,20.74286 -3.10567,11.66785 c -7.23656,27.18752 -18.01867,46.43776 -36.95939,65.98684 -27.28752,28.16395 -58.23022,44.11186 -96.81087,49.89646 -11.71185,1.75602 -35.86943,2.10032 -47.10357,0.67135 l 1.9e-4,0 z"
     id="path3880"
     inkscape:connector-curvature="0" />
  <path
     sodipodi:type="arc"
     style="opacity:1;fill:#008000;fill-opacity:1;stroke:#008000;stroke-width:0;stroke-linecap:butt;stroke-miterlimit:4;stroke-opacity:1;stroke-dasharray:none"
     id="path2989"
     sodipodi:cx="456.47702"
     sodipodi:cy="176.62318"
     sodipodi:rx="162.28044"
     sodipodi:ry="151.48424"
     d="m 618.75746,176.62318 a 162.28044,151.48424 0 1 1 -324.56088,0 162.28044,151.48424 0 1 1 324.56088,0 z" />
  <path
     transform="translate(246.6258,248.65008)"
     sodipodi:type="arc"
     style="opacity:1;fill:#008000;fill-opacity:1;stroke:#008000;stroke-width:0;stroke-linecap:butt;stroke-miterlimit:4;stroke-opacity:1;stroke-dasharray:none"
     id="path2989-2"
     sodipodi:cx="456.47702"
     sodipodi:cy="176.62318"
     sodipodi:rx="162.28044"
     sodipodi:ry="151.48424"
     d="m 618.75746,176.62318 a 162.28044,151.48424 0 1 1 -324.56088,0 162.28044,151.48424 0 1 1 324.56088,0 z" />
  <path
     transform="translate(-250.67437,249.32484)"
     sodipodi:type="arc"
     style="opacity:1;fill:#008000;fill-opacity:1;stroke:#008000;stroke-width:0;stroke-linecap:butt;stroke-miterlimit:4;stroke-opacity:1;stroke-dasharray:none"
     id="path2989-8"
     sodipodi:cx="456.47702"
     sodipodi:cy="176.62318"
     sodipodi:rx="162.28044"
     sodipodi:ry="151.48424"
     d="m 618.75746,176.62318 a 162.28044,151.48424 0 1 1 -324.56088,0 162.28044,151.48424 0 1 1 324.56088,0 z" />
  <path
     transform="translate(-0.3130941,498.31231)"
     sodipodi:type="arc"
     style="opacity:1;fill:#008000;fill-opacity:1;stroke:none;stroke-width:0;stroke-linecap:butt;stroke-miterlimit:4;stroke-opacity:1;stroke-dasharray:none"
     id="path2989-9"
     sodipodi:cx="456.47702"
     sodipodi:cy="176.62318"
     sodipodi:rx="162.28044"
     sodipodi:ry="151.48424"
     d="m 618.75746,176.62318 a 162.28044,151.48424 0 1 1 -324.56088,0 162.28044,151.48424 0 1 1 324.56088,0 z" />
  <path
     style="fill:#008000;fill-opacity:1;stroke:#008000;stroke-width:0;stroke-linecap:butt;stroke-miterlimit:4;stroke-opacity:1;stroke-dasharray:none"
     d="M 193.31143,575.98235 C 165.96126,572.84696 152.12075,569.12936 132.37929,559.61586 90.595826,539.4802 61.523824,505.50024 49.509184,462.75555 43.15791,440.15951 43.244248,411.52278 49.733938,388.20886 64.15591,336.39858 107.78474,295.19628 163.49357,280.77628 c 25.35566,-6.56321 58.30329,-6.67558 83.66889,-0.28536 53.03899,13.36183 96.39545,52.06137 112.28777,100.22694 4.43497,13.44128 7.5518,30.42098 7.57554,41.26964 l 0.007,3.24107 -81.24286,0 -81.24286,0 0,4.75357 0,4.75357 81.18852,0 81.18852,0 -0.34008,2.80893 c -1.99677,16.4925 -4.70337,28.14582 -9.11876,39.26091 -14.58897,36.72562 -40.94332,64.70996 -77.79673,82.60839 -22.87222,11.10825 -42.91086,15.8833 -69.50361,16.56217 -7.60571,0.19416 -15.18982,0.19697 -16.85357,0.006 l 0,1.9e-4 z"
     id="path3854"
     inkscape:connector-curvature="0" />
  <path
     style="fill:#008000;fill-opacity:1;stroke:#008000;stroke-width:0;stroke-linecap:butt;stroke-miterlimit:4;stroke-opacity:1;stroke-dasharray:none"
     d="m 431.85429,325.35095 c -58.87304,-9.23723 -107.20765,-46.45584 -127.00735,-97.79819 -11.70466,-30.35119 -12.60536,-63.90774 -2.54316,-94.74784 12.47005,-38.219985 40.9891,-70.283714 79.34018,-89.201474 23.92153,-11.79997 47.15799,-17.113104 74.84247,-17.113104 20.35139,0 35.02423,2.272284 53.15357,8.231537 48.46496,15.930796 86.16787,52.534282 101.02907,98.083041 8.52213,26.11983 9.19078,56.39413 1.80498,81.72294 -7.7995,26.74753 -20.42258,47.34428 -41.28018,67.3558 -20.13019,19.31362 -47.51781,34.09849 -75.06085,40.52068 -10.40896,2.42707 -23.51708,4.29566 -30.13376,4.29566 l -5.62355,0 0,-73.46429 0,-73.46428 -4.75357,0 -4.75357,0 0,73.46428 0,73.46429 -5.83393,-0.0982 c -3.20866,-0.054 -9.13982,-0.61689 -13.18035,-1.25085 l 0,0 z"
     id="path3856"
     inkscape:connector-curvature="0" />
  <path
     style="fill:#008000;fill-opacity:1;stroke:#008000;stroke-width:0;stroke-linecap:butt;stroke-miterlimit:4;stroke-opacity:1;stroke-dasharray:none"
     d="m 680.76857,574.23661 c -59.16239,-7.82239 -108.9545,-45.68962 -129.44961,-98.44732 -4.32606,-11.13598 -8.82472,-30.39321 -8.83334,-37.8125 l -0.003,-2.37679 81.675,0 81.675,0 0,-4.61176 0,-4.61176 -55.09822,-0.57321 c -30.30402,-0.31527 -67.27252,-0.57355 -82.15223,-0.57396 l -27.05401,-7.4e-4 0.54382,-7.5625 c 3.94381,-54.84359 35.86473,-100.91924 87.25136,-125.94134 50.25642,-24.47175 111.61919,-22.05473 159.55052,6.28454 47.0814,27.83674 75.20162,75.41221 75.20162,127.23055 0,33.01524 -11.66379,65.52864 -32.56707,90.78238 -31.75829,38.36793 -78.51955,59.87172 -129.39328,59.50319 -6.74949,-0.0489 -16.35555,-0.62884 -21.3468,-1.28878 z"
     id="path3858"
     inkscape:connector-curvature="0" />
  <path
     style="fill:none;fill-opacity:1;stroke:none;stroke-width:0;stroke-linecap:butt;stroke-miterlimit:0;stroke-opacity:1;stroke-dasharray:none;stroke-dashoffset:0"
     d="m 442.65786,824.89789 c -1.42607,-0.19534 -6.09322,-0.78072 -10.37143,-1.30085 -19.79548,-2.40668 -43.38282,-10.51681 -61.40237,-21.11221 -26.34466,-15.49054 -47.62769,-37.9485 -60.75635,-64.11041 -17.46403,-34.80113 -19.81339,-75.64628 -6.45357,-112.19942 4.66153,-12.75418 14.38487,-30.11314 22.51137,-40.18929 22.42338,-27.80301 53.75292,-47.69892 89.17454,-56.63052 6.95677,-1.75416 26.94953,-4.72449 31.83531,-4.72978 l 3.67321,-0.004 0,78.21786 0,78.21785 4.75357,0 4.75357,0 0,-78.21785 0,-78.21786 3.81296,0 c 5.68284,0 23.31573,2.50642 31.19062,4.43357 34.5571,8.45687 65.87328,27.30846 86.7273,52.20779 23.81027,28.42902 34.92205,58.25736 34.92205,93.74435 0,19.33651 -2.55617,33.33706 -9.32606,51.08026 -10.68525,28.00498 -31.08991,53.07903 -57.87329,71.11699 -19.72733,13.28587 -42.28422,22.03031 -67.41429,26.13391 -7.51685,1.22747 -34.46434,2.28455 -39.75714,1.55959 l 0,0 z"
     id="path3860"
     inkscape:connector-curvature="0" />
  <path
     style="fill:#008000;fill-opacity:1;stroke:#008000;stroke-width:0;stroke-linecap:butt;stroke-miterlimit:0;stroke-opacity:1;stroke-dasharray:none"
     d="M 180.77929,570.006 C 136.85895,563.2437 96.385309,538.23858 73.123931,503.49515 44.899663,461.33909 41.3545,409.19542 63.686941,364.6921 c 27.00117,-53.807 85.827009,-87.10393 149.070919,-84.37796 28.40053,1.22414 53.71485,8.66049 76.91569,22.5948 34.86758,20.9413 58.45512,51.56851 68.25184,88.62152 2.07556,7.85014 4.77014,23.31112 4.78094,27.43204 l 0.005,1.94464 -81.24286,0 -81.24286,0 0,9.075 0,9.075 80.81072,0 c 67.81903,0 80.81071,0.19022 80.81071,1.18322 0,0.65077 -0.59107,4.57271 -1.3135,8.71543 -7.05138,40.43559 -32.08851,76.38799 -68.69364,98.64155 -17.00443,10.33759 -34.93743,17.46574 -53.25852,21.16961 -12.06173,2.43844 -45.37434,3.15254 -57.80219,1.23905 l 0,0 z"
     id="path3862"
     inkscape:connector-curvature="0" />
  <path
     style="fill:#008000;fill-opacity:1;stroke:#008000;stroke-width:0;stroke-linecap:butt;stroke-miterlimit:0;stroke-opacity:1;stroke-dasharray:none"
     d="m 435.42869,321.41567 c -27.33697,-3.17243 -59.1809,-16.74583 -81.79226,-34.86376 -41.02695,-32.8739 -61.10227,-85.59335 -51.48519,-135.20435 11.47799,-59.210676 61.35854,-106.392702 124.94947,-118.189745 6.91899,-1.283573 12.86634,-1.602774 29.81786,-1.600357 18.70794,0.0027 22.33301,0.236615 31.11429,2.008 30.97256,6.247873 58.73258,20.566078 80.69974,41.6237 22.68785,21.748486 37.14035,48.357292 42.54041,78.322052 2.32411,12.89647 2.11737,36.6875 -0.42348,48.73165 -8.07288,38.2671 -29.12987,69.32386 -62.59044,92.31405 -10.07524,6.92253 -29.59108,16.52305 -40.7798,20.06101 -10.01301,3.16618 -26.4468,6.53598 -36.08393,7.39915 l -6.69822,0.59992 0,-73.58349 0,-73.5835 -9.075,0 -9.075,0 0,73.46429 0,73.46428 -2.37678,-0.11213 c -1.30724,-0.0616 -5.24099,-0.44451 -8.74167,-0.85077 l 0,0 z"
     id="path3864"
     inkscape:connector-curvature="0" />
  <path
     style="fill:#008000;fill-opacity:1;stroke:#008000;stroke-width:0;stroke-linecap:butt;stroke-miterlimit:0;stroke-opacity:1;stroke-dasharray:none"
     d="m 685.95429,570.38234 c -23.41485,-2.13383 -51.07871,-11.75037 -71.27794,-24.7777 -28.13214,-18.14357 -50.06252,-45.42589 -60.35153,-75.07981 -2.72515,-7.85417 -5.66816,-19.28281 -7.0461,-27.36233 l -0.55276,-3.24107 81.71416,0 81.71417,0 0,-8.97096 0,-8.97096 -82.1647,-0.64521 -82.16469,-0.64522 0.45366,-3.13204 c 0.24952,-1.72262 0.69928,-5.27115 0.99948,-7.88561 6.58856,-57.38074 50.0918,-106.44918 109.72267,-123.75907 74.62355,-21.66202 155.33543,11.93885 188.2846,78.38407 8.80168,17.74945 13.3636,36.01699 14.1373,56.61071 1.65033,43.92725 -18.0521,85.72747 -53.97083,114.50334 -33.65773,26.9645 -74.90456,39.0357 -119.49749,34.97186 z"
     id="path3866"
     inkscape:connector-curvature="0" />
  <path
     style="fill:#008000;fill-opacity:1;stroke:none;stroke-width:0;stroke-linecap:butt;stroke-miterlimit:0;stroke-opacity:1;stroke-dasharray:none"
     d="m 182.07571,572.98082 c -14.96946,-1.80587 -33.56898,-7.64276 -50.09469,-15.7207 -43.717729,-21.36968 -73.234799,-58.4982 -83.14979,-104.59132 -2.820185,-13.11055 -2.844458,-39.34367 -0.04916,-53.13351 9.333655,-46.04506 40.78154,-85.15644 85.32579,-106.11873 22.17914,-10.43739 41.2194,-14.94063 66.55,-15.73986 29.45627,-0.9294 55.67118,4.70771 80.21828,17.24971 42.67186,21.80261 71.79743,58.68729 81.42522,103.11707 2.83824,13.0978 3.62858,22.99705 1.94743,24.39228 -0.97644,0.81037 -19.80103,1.10637 -81.13476,1.27579 l -79.86332,0.22059 0,6.05 0,6.05 79.26121,0.43215 c 77.99158,0.42522 79.28211,0.45983 80.56715,2.16071 1.79413,2.37471 1.67951,4.57576 -0.81015,15.55714 -2.78179,12.27 -4.93261,18.7496 -9.75418,29.38572 -14.41946,31.80847 -39.81488,57.51969 -72.80862,73.71401 -19.0816,9.36583 -34.86616,14.06688 -52.68755,15.69173 -11.23335,1.02419 -36.47918,1.02825 -44.94286,0.007 l 0,3.1e-4 z"
     id="path3870"
     inkscape:connector-curvature="0" />
  <path
     style="fill:#008000;fill-opacity:1;stroke:none;stroke-width:0;stroke-linecap:butt;stroke-miterlimit:0;stroke-opacity:1;stroke-dasharray:none"
     d="m 463.45879,324.17132 c -1.19007,-1.31501 -1.36991,-9.76836 -1.56558,-73.59099 l -0.22107,-72.10533 -6.05,0 -6.05,0 -0.22106,72.07623 c -0.20668,67.38813 -0.31912,72.15066 -1.72857,73.22073 -2.10915,1.60126 -7.10786,1.46994 -18.49127,-0.48578 -12.32513,-2.1175 -22.56654,-5.08415 -34.80373,-10.08165 -37.64523,-15.37382 -65.09949,-40.01498 -81.74079,-73.36524 -10.20307,-20.44764 -14.43313,-36.37372 -15.29207,-57.57433 -0.98955,-24.42452 3.61939,-45.76182 14.63366,-67.7471 7.41597,-14.802819 14.31527,-24.388847 26.97099,-37.474012 22.18966,-22.942624 51.57042,-39.039782 83.87999,-45.956248 10.87038,-2.327008 42.99428,-3.344632 56.24603,-1.781767 30.5425,3.602076 64.09917,18.998546 87.65754,40.219028 34.91052,31.446079 52.15057,73.370959 48.62115,118.238399 -2.71239,34.48092 -18.22817,66.75613 -43.88206,91.2814 -25.493,24.37147 -55.76882,39.23047 -90.73552,44.5319 -14.52731,2.20253 -15.73489,2.24422 -17.22764,0.59476 l 0,0 z"
     id="path3874"
     inkscape:connector-curvature="0" />
  <path
     style="fill:#008000;fill-opacity:1;stroke:none;stroke-width:0;stroke-linecap:butt;stroke-miterlimit:0;stroke-opacity:1;stroke-dasharray:none"
     d="m 683.05565,572.97057 c -13.94182,-1.61918 -32.05471,-6.57127 -46.21163,-12.63432 -17.16908,-7.35309 -31.29325,-16.49078 -44.70733,-28.92361 -24.56174,-22.76504 -38.89711,-47.8463 -46.24346,-80.9079 -1.69642,-7.6346 -1.80976,-9.16143 -0.81764,-11.01522 l 1.15176,-2.15209 80.45097,-0.2205 80.45097,-0.2205 0.25344,-5.74118 0.25345,-5.74119 -13.21774,-0.50154 c -7.26975,-0.27585 -43.52293,-0.68609 -80.56262,-0.91164 -79.62475,-0.48489 -71.43872,0.96456 -69.73221,-12.34707 4.43513,-34.59644 18.00293,-62.67628 41.98986,-86.90199 38.77924,-39.16526 95.33667,-55.85508 151.21309,-44.62225 56.56122,11.37051 103.55169,52.90275 119.18603,105.34186 4.25746,14.27991 5.20412,21.62061 5.23857,40.62143 0.0276,15.21046 -0.2416,18.97144 -1.90214,26.57594 -6.04138,27.6669 -18.2266,50.6234 -37.52747,70.70038 -31.79751,33.07614 -74.32155,50.82278 -120.77422,50.40294 -6.91243,-0.0625 -15.23368,-0.42317 -18.49168,-0.80155 z"
     id="path3878"
     inkscape:connector-curvature="0" />
  <path
     style="fill:none;stroke:#000000;stroke-width:9;stroke-linecap:butt;stroke-linejoin:miter;stroke-opacity:1;stroke-miterlimit:4;stroke-dasharray:none"
     d="m 205.12789,429.9966 499.99922,0.67476"
     id="path3795"
     inkscape:connector-curvature="0" />
  <path
     style="fill:none;stroke:#000000;stroke-width:9;stroke-linecap:butt;stroke-linejoin:miter;stroke-opacity:1;stroke-miterlimit:4;stroke-dasharray:none"
     d="m 455.46488,180.33437 0,499.99922"
     id="path3793"
     inkscape:connector-curvature="0" />
  <path
     sodipodi:type="arc"
     style="opacity:1;fill:#008000;fill-opacity:1;stroke:none;stroke-width:0;stroke-linecap:butt;stroke-miterlimit:4;stroke-opacity:1;stroke-dasharray:none"
     id="path3791"
     sodipodi:cx="455.80225"
     sodipodi:cy="432.0209"
     sodipodi:rx="66.464134"
     sodipodi:ry="66.801514"
     d="m 522.26638,432.0209 a 66.464134,66.801514 0 1 1 -132.92827,0 66.464134,66.801514 0 1 1 132.92827,0 z"
     transform="matrix(0.99806956,0,0,0.98328907,0.75159425,6.3357878)" />
  <path
     style="fill:#008000;fill-opacity:1;stroke:none"
     d="M 181.64357,572.94734 C 166.63829,571.17619 146.171,564.54072 129.54221,556.05614 86.987169,534.34311 58.569775,497.94164 48.831233,452.6688 46.011048,439.55825 45.986774,413.32513 48.782069,399.53529 63.163785,328.58699 128.95874,277.43572 205.83653,277.43572 c 27.09306,0 52.31145,5.87806 75.03961,17.4907 42.7233,21.82889 71.78582,58.63372 81.42522,103.11706 2.83825,13.0978 3.62858,22.99705 1.94743,24.39228 -0.97644,0.81037 -19.80103,1.10637 -81.13476,1.27579 l -79.86331,0.22059 0,6.05 0,6.05 79.2612,0.43215 c 77.99158,0.42522 79.28211,0.45983 80.56715,2.16071 1.79413,2.37471 1.67951,4.57576 -0.81015,15.55714 -2.78179,12.27 -4.9326,18.7496 -9.75418,29.38572 -14.41996,31.80957 -39.82182,57.52672 -72.80862,73.71226 -19.37005,9.50425 -34.58103,14.03412 -52.68755,15.69046 -11.39657,1.04254 -36.45445,1.0297 -45.375,-0.0233 l 0,1e-5 z"
     id="path3770"
     inkscape:connector-curvature="0" />
  <path
     style="fill:#008000;fill-opacity:1;stroke:none"
     d="M 194.60786,576.38962 C 141.48428,573.00813 94.453121,545.91513 66.48432,502.58214 47.802601,473.63794 40.559353,438.39172 46.016343,402.98334 53.304134,355.69557 86.155865,313.5408 133.05558,291.29612 c 23.8259,-11.30071 44.86545,-15.90729 72.78799,-15.93684 28.09579,-0.0297 49.24967,4.67715 73.46429,16.34629 27.83174,13.41225 49.82074,32.64087 65.71542,57.46586 12.55936,19.61574 21.2866,46.49727 22.23719,68.49464 l 0.3268,7.5625 -81.52006,0 -81.52006,0 0,4.75357 0,4.75357 81.24285,0 81.24286,0 -0.003,3.24108 c -0.003,4.34284 -2.30455,17.28485 -4.49438,25.28035 -11.77607,42.99679 -43.58247,79.10109 -87.11715,98.88902 -24.33729,11.0621 -52.5815,16.04033 -80.81072,14.24346 l -1.6e-4,0 z"
     id="path3003"
     inkscape:connector-curvature="0" />
  <path
     style="fill:#008000;fill-opacity:1;stroke:none"
     d="m 435.86994,827.1329 c -63.12719,-7.99581 -117.43829,-50.58138 -135.74956,-106.44182 -6.39367,-19.50457 -6.9597,-23.36067 -6.89612,-46.98037 l 0.0558,-20.74285 3.13641,-11.85355 c 8.8228,-33.34434 26.29811,-60.15344 53.76278,-82.4782 14.61213,-11.87752 35.37716,-22.88533 54.45,-28.86465 12.53919,-3.93102 33.17279,-7.74289 41.91217,-7.74289 l 4.32711,0 0,79.51429 0,79.51428 4.75357,0 4.75358,0 0,-79.51428 0,-79.51429 4.75925,0 c 11.38107,0 33.80638,4.67603 49.8562,10.3958 51.59869,18.38854 91.05759,61.9212 101.84387,112.35834 2.41001,11.2693 3.40663,40.21432 1.74928,50.80463 -4.98503,31.85383 -19.93334,60.8913 -43.24186,83.99837 -24.38232,24.17158 -54.86779,39.73532 -89.90246,45.89786 -11.23085,1.97549 -39.5547,2.91791 -49.57006,1.64933 z"
     id="path3005"
     inkscape:connector-curvature="0" />
  <path
     style="fill:#008000;fill-opacity:1;stroke:none"
     d="m 687.68286,575.6332 c -25.562,-1.94122 -54.42183,-11.93779 -76.97794,-26.66389 -32.10173,-20.95812 -54.27716,-50.86129 -64.4082,-86.85334 -1.82443,-6.48157 -4.65636,-21.89586 -4.67305,-25.43561 -0.004,-0.85674 16.9898,-1.08036 82.10205,-1.08036 l 82.10714,0 0,-4.61176 0,-4.61176 -55.09822,-0.57321 c -30.30401,-0.31527 -67.19936,-0.57355 -81.98966,-0.57396 l -26.89145,-7.4e-4 -0.50891,-3.71289 c -0.7387,-5.38938 1.65025,-21.05774 5.1388,-33.70385 10.36792,-37.58407 36.63031,-70.78237 72.05658,-91.0868 18.53444,-10.62294 37.50946,-17.18578 59.69762,-20.64748 12.1298,-1.89243 37.84481,-1.90466 50.06667,-0.0238 66.0587,10.16595 118.97433,56.97876 132.9632,117.6284 4.58735,19.88876 4.59402,46.08089 0.0162,63.525 -7.45578,28.41064 -18.47531,48.36316 -37.87771,68.58328 -24.95152,26.0031 -58.35158,43.08803 -94.70243,48.44253 -11.15766,1.64352 -29.54991,2.27135 -41.02067,1.40025 l 10e-6,0 z"
     id="path3007"
     inkscape:connector-curvature="0" />
  <path
     style="fill:#008000;fill-opacity:1;stroke:#008000"
     d="m 436.93859,326.61077 c -20.08257,-1.94116 -46.15627,-10.55829 -65.2398,-21.5612 -26.658,-15.37007 -48.40038,-38.13578 -61.47102,-64.36424 -12.35578,-24.79395 -16.91325,-47.86277 -14.93228,-75.58356 1.96244,-27.46152 13.16672,-55.66161 30.91453,-77.808911 5.42868,-6.774386 17.75106,-19.197631 24.3701,-24.569569 18.47977,-14.997983 44.40128,-27.625728 67.47082,-32.868618 17.47881,-3.972318 44.48928,-5.122582 61.96152,-2.638686 54.26021,7.713757 101.1868,40.781132 123.89189,87.301874 15.90483,32.58759 18.57279,71.87333 7.2256,106.39708 -3.11952,9.49113 -11.37344,26.44777 -16.83176,34.57874 -19.94591,29.71238 -49.6713,52.15537 -83.7939,63.26533 -15.39936,5.01387 -34.69002,8.77045 -45.15893,8.79407 l -4.96964,0.0112 0,-73.89643 0,-73.89643 -4.75358,0 -4.75357,0 0,73.89643 0,73.89643 -3.24107,-0.11681 c -1.78259,-0.0642 -6.5926,-0.44076 -10.68891,-0.83671 z"
     id="path3009"
     inkscape:connector-curvature="0" />
  <path
     style="fill:#008000;fill-opacity:1;stroke:#008000;stroke-width:0;stroke-linecap:butt;stroke-miterlimit:0;stroke-opacity:1;stroke-dasharray:none;stroke-dashoffset:0"
     d="m 189.42215,575.56723 c -39.25123,-4.06081 -73.99249,-20.161 -100.625441,-46.63299 -22.918398,-22.77989 -36.976792,-49.28862 -42.158846,-79.49539 -2.014383,-11.74206 -1.966499,-36.57305 0.0924,-47.91495 8.593536,-47.33942 39.991963,-87.20042 86.081167,-109.28195 18.87138,-9.04136 35.88024,-13.84461 55.31429,-15.6206 33.39854,-3.05213 62.39817,1.88658 90.31785,15.38135 33.28307,16.08711 57.64474,39.47004 72.99824,70.06544 8.3343,16.60803 14.0071,36.99728 15.26248,54.85661 l 0.58371,8.30382 -81.37043,0 -81.37042,0 0,4.75357 0,4.75357 81.29581,0 81.29582,0 -0.53147,4.10536 c -3.82019,29.50939 -13.52422,53.50779 -30.395,75.16791 -20.33176,26.1036 -50.13604,46.14725 -82.544,55.51158 -19.23798,5.55884 -45.27501,8.00938 -64.24616,6.04667 z"
     id="path3011"
     inkscape:connector-curvature="0" />
  <path
     style="fill:#008000;fill-opacity:1;stroke:#008000;stroke-width:0;stroke-linecap:butt;stroke-miterlimit:0;stroke-opacity:1;stroke-dasharray:none;stroke-dashoffset:0"
     d="m 441.94981,327.00028 c -0.16798,-0.16797 -2.60542,-0.53035 -5.41654,-0.80527 -7.44936,-0.72854 -12.45179,-1.58613 -16.56291,-2.83944 -1.54491,-0.47098 -2.80893,-0.6414 -2.80893,-0.3787 0,0.2627 -0.49586,0.0661 -1.10189,-0.43685 -0.60605,-0.50297 -2.06453,-1.07419 -3.24108,-1.26938 -1.17655,-0.19518 -2.72256,-0.60461 -3.4356,-0.90984 -0.71304,-0.30523 -2.26875,-0.72506 -3.45714,-0.93294 -1.1884,-0.20789 -2.25795,-0.4555 -2.37679,-0.55024 -0.11884,-0.0947 -0.50777,-0.23466 -0.86428,-0.31093 -0.35652,-0.0762 -1.49392,-0.60899 -2.52755,-1.18384 -1.03363,-0.57486 -2.58935,-1.16348 -3.45714,-1.30807 -0.8678,-0.14457 -2.4529,-0.7437 -3.52246,-1.33138 -1.06955,-0.58768 -1.94464,-0.85139 -1.94464,-0.58603 0,0.26537 -0.87509,-0.0909 -1.94464,-0.7917 -1.06956,-0.7008 -2.2383,-1.28925 -2.59723,-1.30769 -0.35892,-0.0184 -3.37115,-1.40255 -6.69384,-3.07584 -3.3227,-1.67328 -6.16825,-2.9412 -6.32345,-2.81759 -0.15519,0.12361 -0.96279,-0.45589 -1.79467,-1.28776 -0.83187,-0.83188 -2.06811,-1.5125 -2.74719,-1.5125 -0.67908,0 -1.23469,-0.30508 -1.23469,-0.67794 0,-0.37287 -1.26402,-1.41408 -2.80893,-2.31379 -5.67774,-3.30657 -16.84886,-12.28318 -24.61725,-19.78134 -9.0699,-8.75439 -16.39283,-17.7385 -22.64963,-27.78765 -2.36774,-3.80285 -4.72481,-7.40044 -5.23795,-7.99464 -0.51313,-0.5942 -0.71829,-1.08036 -0.45591,-1.08036 0.26239,0 -0.47804,-1.51298 -1.6454,-3.36219 -1.16735,-1.84921 -1.88526,-3.59939 -1.59536,-3.88929 0.2899,-0.28989 0.009,-0.52709 -0.62529,-0.52709 -0.63381,0 -0.9086,-0.24377 -0.61066,-0.54172 0.29795,-0.29795 -0.034,-1.65512 -0.73775,-3.01595 -0.70371,-1.36081 -1.20587,-2.57553 -1.11591,-2.69934 0.09,-0.12382 -0.36931,-1.19745 -1.02059,-2.38585 -0.65127,-1.18839 -1.28986,-2.78831 -1.41907,-3.55539 -0.12921,-0.76707 -0.69903,-2.51725 -1.26626,-3.88929 -0.56724,-1.37202 -1.11255,-2.7863 -1.2118,-3.14282 -0.0992,-0.35651 -0.25883,-0.74544 -0.35462,-0.86428 -0.0958,-0.11884 -0.31614,-0.79947 -0.48965,-1.5125 -0.17352,-0.71304 -0.53269,-2.17152 -0.79816,-3.24107 -1.20454,-4.853 -1.45716,-5.99463 -1.86473,-8.42679 -1.20797,-7.20863 -2.44112,-20.46403 -2.45233,-26.36071 -0.007,-3.67578 1.04667,-16.03822 1.76793,-20.74286 1.06661,-6.9572 1.6439,-9.74361 2.82028,-13.6125 0.46975,-1.54491 0.63915,-2.80893 0.37645,-2.80893 -0.2627,0 -0.0661,-0.49586 0.43685,-1.10189 0.50298,-0.60605 1.06418,-2.06453 1.24713,-3.24107 0.18294,-1.17656 1.01238,-3.6949 1.84319,-5.59632 0.83082,-1.90143 1.56678,-4.13777 1.63549,-4.96965 0.0687,-0.83187 0.43108,-1.5125 0.80528,-1.5125 0.3742,0 0.6004,-0.29169 0.50266,-0.64821 -0.0977,-0.35652 0.47015,-1.86293 1.26196,-3.34757 0.79181,-1.48464 1.19588,-2.94312 0.89794,-3.24107 -0.29795,-0.29795 -0.065,-0.54172 0.51762,-0.54172 0.58263,0 0.81897,-0.38893 0.52518,-0.86428 -0.29379,-0.47536 -0.0575,-0.86429 0.52518,-0.86429 0.58264,0 0.82344,-0.23591 0.53511,-0.52424 -0.28833,-0.28833 -0.14921,-0.96895 0.30915,-1.5125 1.54191,-1.82843 9.43413,-15.35666 9.43413,-16.171238 0,-0.443469 0.323,-0.806307 0.71777,-0.806307 0.39478,0 1.91194,-1.662849 3.37148,-3.695218 5.25136,-7.312382 22.22923,-24.141679 30.80595,-30.53636 4.81318,-3.588634 9.43185,-7.074015 10.26373,-7.745289 0.83187,-0.671275 1.5125,-1.024963 1.5125,-0.785975 0,0.238989 1.48766,-0.504591 3.30591,-1.652402 4.67397,-2.950549 19.46905,-10.407572 20.24588,-10.204339 0.35651,0.09327 0.64821,-0.242299 0.64821,-0.74571 0,-0.503411 0.29555,-0.732634 0.65678,-0.509383 0.36122,0.22325 2.01416,-0.205445 3.67321,-0.952658 1.65904,-0.747212 3.2109,-1.420952 3.44858,-1.497199 0.23768,-0.07625 2.76572,-0.839015 5.61786,-1.695038 2.85214,-0.856024 5.57464,-1.789536 6.05,-2.074471 0.47536,-0.284935 1.25321,-0.603497 1.72857,-0.707914 0.47536,-0.104417 1.83661,-0.425788 3.025,-0.714157 2.06384,-0.5008 3.36715,-0.740954 9.72185,-1.79139 1.54566,-0.255498 3.78261,-0.626529 4.97101,-0.824514 10.82922,-1.804132 43.27546,-1.814265 53.58571,-0.01674 1.18839,0.207189 3.3275,0.571859 4.75357,0.810377 3.56657,0.596529 7.71765,1.608367 12.31607,3.002081 1.54491,0.46824 2.80893,0.636408 2.80893,0.373707 0,-0.262701 0.58339,0.0065 1.29643,0.598302 0.71304,0.591767 1.29643,0.786231 1.29643,0.432143 0,-0.354089 0.51669,-0.214986 1.14819,0.309116 0.6315,0.524102 2.08998,1.126216 3.24107,1.33803 1.15109,0.211815 2.19011,0.462635 2.30895,0.557379 0.11884,0.09474 0.50777,0.244507 0.86429,0.332809 0.35652,0.0883 2.20393,0.853247 4.10536,1.69988 1.90142,0.846632 3.84607,1.622081 4.32142,1.723219 0.47536,0.101139 2.079,0.82778 3.56364,1.614758 1.48464,0.786978 2.94312,1.187095 3.24108,0.889149 0.29794,-0.297946 0.54171,-0.06502 0.54171,0.51762 0,0.582637 0.38893,0.81897 0.86429,0.525183 0.47536,-0.293787 0.86428,-0.09932 0.86428,0.432143 0,0.531466 0.38893,0.72593 0.86429,0.432143 0.47536,-0.293787 0.86429,-0.09932 0.86429,0.432143 0,0.531465 0.38892,0.72593 0.86428,0.432142 0.47536,-0.293787 0.86429,-0.09932 0.86429,0.432143 0,0.531466 0.38893,0.72593 0.86428,0.432143 0.47536,-0.293787 0.86429,-0.205867 0.86429,0.195379 0,0.401245 2.23634,1.88268 4.96964,3.292079 2.73331,1.409398 5.09929,2.854239 5.25774,3.210756 0.15845,0.356518 0.80667,0.648215 1.44048,0.648215 0.6338,0 1.28202,0.291696 1.44047,0.648214 0.15845,0.356518 3.98292,3.439895 8.49881,6.851949 13.29417,10.044616 27.15862,24.734276 35.92357,38.061724 1.80815,2.749356 3.51836,5.193296 3.80048,5.430976 0.28212,0.23768 1.2419,2.08509 2.13285,4.10535 0.89096,2.02027 1.97272,3.67322 2.40394,3.67322 0.43122,0 0.54366,0.38893 0.24988,0.86428 -0.29379,0.47536 -0.0993,0.86429 0.43214,0.86429 0.53146,0 0.72593,0.38893 0.43214,0.86429 -0.29379,0.47535 -0.0575,0.86428 0.52518,0.86428 0.58265,0 0.81557,0.24377 0.51763,0.54172 -0.29795,0.29795 0.034,1.65512 0.73774,3.01595 0.70371,1.36082 1.26372,2.67683 1.24445,2.92447 -0.0193,0.24765 0.63333,1.7102 1.4502,3.25013 0.81687,1.53994 1.61792,3.6899 1.7801,4.77771 0.16218,1.08782 0.73313,3.03246 1.26879,4.32143 0.53566,1.28897 1.05513,2.63529 1.15439,2.99181 0.0992,0.35651 0.25882,0.74544 0.35461,0.86428 0.35244,0.43724 1.46963,5.82992 2.17347,10.49133 0.27912,1.84854 0.72383,3.71103 0.98826,4.13889 1.44154,2.33246 2.08258,36.97479 0.82081,44.35728 -0.32498,1.90143 -0.7482,4.42947 -0.94047,5.61786 -0.80923,5.00163 -1.60597,8.42686 -2.41249,10.37143 -0.29573,0.71303 -0.76384,2.46321 -1.04024,3.88928 -0.74871,3.86294 -0.84507,4.17293 -1.88055,6.05 -0.52446,0.95072 -0.95382,1.92304 -0.95414,2.16072 -3.1e-4,0.23768 -1.03819,2.76571 -2.30639,5.61785 -1.2682,2.85215 -2.37585,5.56539 -2.46144,6.02943 -0.0856,0.46404 -0.64536,1.37048 -1.24392,2.01432 -0.59857,0.64384 -0.86731,1.52818 -0.59721,1.96522 0.2701,0.43703 0.0563,0.79461 -0.47521,0.79461 -0.53146,0 -0.74646,0.35571 -0.47777,0.79046 0.2687,0.43476 0.17847,0.92092 -0.2005,1.08036 -0.37897,0.15944 -1.98858,2.62346 -3.5769,5.4756 -10.30237,18.49993 -28.5388,37.46798 -48.9853,50.95055 -4.70578,3.10301 -9.12979,6.13213 -9.83114,6.73136 -0.70135,0.59924 -1.38462,0.98708 -1.51837,0.86187 -0.13376,-0.12522 -2.28242,0.82767 -4.77481,2.11753 -2.49241,1.28986 -4.82333,2.26739 -5.17985,2.1723 -0.35652,-0.0951 -0.64821,0.23899 -0.64821,0.7424 0,0.50342 -0.38893,0.67492 -0.86429,0.38114 -0.47536,-0.29379 -0.86429,-0.0575 -0.86429,0.52518 0,0.58264 -0.2456,0.81374 -0.54577,0.51356 -0.30019,-0.30019 -1.36974,-0.0923 -2.37679,0.46191 -1.00706,0.55422 -2.54102,1.12598 -3.40882,1.27056 -0.8678,0.14458 -2.42351,0.72829 -3.45714,1.29712 -1.03363,0.56884 -2.39586,1.12023 -3.02718,1.22531 -0.63132,0.10509 -1.79811,0.47529 -2.59286,0.82267 -0.79475,0.34738 -2.40763,0.79129 -3.58418,0.98647 -1.17655,0.19518 -2.63503,0.76641 -3.24107,1.26938 -0.60604,0.50297 -1.1019,0.62478 -1.1019,0.27069 0,-0.35409 -0.52194,-0.21061 -1.15988,0.31882 -0.63793,0.52944 -1.34432,0.77818 -1.56974,0.55276 -0.22542,-0.22544 -1.74536,-0.006 -3.37762,0.48702 -4.93183,1.49047 -7.79897,2.12797 -13.33919,2.96591 -1.42607,0.21569 -3.75964,0.58803 -5.18571,0.82742 -1.42607,0.2394 -5.80152,0.62691 -9.72322,0.86113 l -7.13035,0.42586 0,-73.87481 0,-73.87482 -4.75358,0 -4.75357,0 -0.005,73.68036 -0.005,73.68035 -4.30134,0.0868 c -2.36575,0.0477 -4.43879,-0.0507 -4.60676,-0.21864 l -2.9e-4,0 z"
     id="path3013"
     inkscape:connector-curvature="0" />
  <path
     style="fill:#008000;fill-opacity:1;stroke:#008000;stroke-width:0;stroke-linecap:butt;stroke-miterlimit:0;stroke-opacity:1;stroke-dasharray:none;stroke-dashoffset:0"
     d="m 685.95429,575.06172 c -1.1884,-0.17445 -5.07768,-0.73602 -8.64286,-1.24795 -52.83237,-7.58627 -102.31978,-44.19165 -122.79693,-90.83175 -6.07452,-13.8357 -10.9779,-31.64488 -11.39766,-41.39646 l -0.20184,-4.68913 43.21429,-0.52726 c 23.76785,-0.28999 60.42437,-0.58169 81.45893,-0.64821 l 38.24464,-0.12096 0,-4.61518 0,-4.61518 -21.39107,-0.56866 c -11.76509,-0.31277 -48.51144,-0.5695 -81.65854,-0.57053 l -60.26746,-0.002 -0.56105,-2.23541 c -0.82556,-3.28928 0.34295,-14.16716 2.68438,-24.98959 13.14583,-60.76179 61.72938,-107.03772 126.0386,-120.05201 21.0882,-4.26763 53.83781,-3.47218 73.18371,1.77754 18.43495,5.00253 38.69811,13.82357 51.425,22.38655 37.7921,25.4275 61.41034,61.56327 67.47369,103.23435 1.78991,12.30126 1.29606,37.43352 -0.93301,47.48213 -4.98191,22.45841 -16.29879,46.19032 -29.70007,62.28216 -33.34011,40.03372 -79.48533,60.94994 -133.20847,60.37934 -5.94196,-0.0631 -11.77589,-0.25747 -12.96428,-0.43191 z"
     id="path3015"
     inkscape:connector-curvature="0" />
  <path
     style="fill:#008000;fill-opacity:1;stroke:#008000;stroke-width:0;stroke-linecap:butt;stroke-miterlimit:0;stroke-opacity:1;stroke-dasharray:none;stroke-dashoffset:0"
     d="m 429.79495,825.76478 c -43.01366,-7.23485 -82.28759,-30.73639 -107.68153,-64.43671 -9.52834,-12.64506 -16.62048,-26.35843 -22.03112,-42.59938 -5.28817,-15.87335 -5.72292,-18.86301 -6.23219,-42.85726 l -0.46778,-22.03929 3.15647,-11.15153 c 8.1953,-28.95321 19.16606,-48.83313 37.60826,-68.14925 14.1857,-14.85792 26.59861,-24.07888 45.13771,-33.53068 20.23825,-10.31808 40.58804,-16.015 66.18202,-18.52763 l 5.40178,-0.53031 0,79.5572 0,79.5572 4.75357,0 4.75358,0 0,-79.56662 0,-79.56662 6.26607,0.52362 c 26.92153,2.24966 56.27026,11.55167 78.00178,24.72248 39.5743,23.98478 68.07752,65.65175 72.96461,106.66214 1.61361,13.54072 1.19628,38.71368 -0.80288,48.42978 -13.64767,66.32879 -72.37763,117.36722 -142.60101,123.92537 -13.1291,1.22613 -35.8954,1.00953 -44.40934,-0.42251 l 0,0 z"
     id="path3017"
     inkscape:connector-curvature="0" />
  <path
     style="fill:#008000;fill-opacity:1;stroke:#008000;stroke-width:0;stroke-linecap:butt;stroke-miterlimit:0;stroke-opacity:1;stroke-dasharray:none;stroke-dashoffset:0"
     d="m 441.79357,494.80414 c -30.52371,-6.81868 -51.74376,-32.90619 -51.67284,-63.52557 0.0439,-18.96641 7.02889,-34.90297 20.94476,-47.78662 20.89547,-19.34552 53.21468,-22.92914 77.83165,-8.63014 8.48928,4.93108 20.35256,17.24687 24.78908,25.73462 6.96125,13.31795 9.24063,27.00603 6.82255,40.97048 -4.64074,26.80022 -24.71634,47.63804 -51.32953,53.27839 -7.16362,1.51824 -20.49473,1.4982 -27.38567,-0.0411 l 0,-2e-5 z"
     id="path3019"
     inkscape:connector-curvature="0" />
</svg>
